<svg width="24" height="24" viewBox="0 0 24 24" fill="none" xmlns="http://www.w3.org/2000/svg">
<path d="M13.3 17.2719C13.1 17.0719 13.004 16.8302 13.012 16.5469C13.0207 16.2635 13.125 16.0219 13.325 15.8219L16.15 12.9969H5C4.71667 12.9969 4.479 12.9009 4.287 12.7089C4.09567 12.5175 4 12.2802 4 11.9969C4 11.7135 4.09567 11.4759 4.287 11.2839C4.479 11.0925 4.71667 10.9969 5 10.9969H16.15L13.3 8.14687C13.1 7.94687 13 7.70921 13 7.43387C13 7.15921 13.1 6.92187 13.3 6.72187C13.5 6.52187 13.7377 6.42188 14.013 6.42188C14.2877 6.42188 14.525 6.52187 14.725 6.72187L19.3 11.2969C19.4 11.3969 19.471 11.5052 19.513 11.6219C19.5543 11.7385 19.575 11.8635 19.575 11.9969C19.575 12.1302 19.5543 12.2552 19.513 12.3719C19.471 12.4885 19.4 12.5969 19.3 12.6969L14.7 17.2969C14.5167 17.4802 14.2877 17.5719 14.013 17.5719C13.7377 17.5719 13.5 17.4719 13.3 17.2719Z" fill="#1068FB"/>
</svg>
