<svg width="1439" height="34" viewBox="0 0 1439 34" fill="none" xmlns="http://www.w3.org/2000/svg">
<path d="M1320 31.3533C1368.73 32.0149 1440 17.3054 1440 17.3054V0H0V34C0 34 73.0831 18.5145 124 17.3054C181.35 15.9435 209.682 29.7834 267 31.3533C346.656 33.535 388.694 18.186 468.5 17.3054C563.348 16.2588 614.15 32.3682 709 31.3533C789.193 30.4953 831.616 14.3171 911.5 17.3054C963.617 19.255 988.767 30.0123 1041 31.3533C1109.56 33.1135 1142 17.3054 1199.5 17.3054C1243.22 17.3054 1276.31 30.7601 1320 31.3533Z" fill="white"/>
</svg>
