<svg width="36" height="36" viewBox="0 0 36 36" fill="none" xmlns="http://www.w3.org/2000/svg">
<rect width="36" height="36" rx="13" fill="#F3F4FF"/>
<path d="M18.5512 23.6556H18.5512C18.7623 23.6573 19.0008 23.7436 19.195 23.8246C19.4116 23.9149 19.6634 24.039 19.9311 24.1792C20.2993 24.3719 20.7215 24.6079 21.1508 24.8479C21.3429 24.9553 21.5364 25.0635 21.7271 25.1689C22.3552 25.5163 22.9572 25.8363 23.4379 26.0404C23.6634 26.1362 23.8426 26.1978 23.974 26.2277C23.9881 26.0945 23.9877 25.9062 23.97 25.6635C23.9323 25.144 23.824 24.4726 23.6982 23.7674C23.66 23.5534 23.6202 23.3358 23.5806 23.1199C23.4922 22.6371 23.4052 22.1622 23.3417 21.7523C23.2956 21.4543 23.2596 21.1764 23.2441 20.9427C23.2303 20.7333 23.2256 20.4796 23.2927 20.2791L23.2927 20.2791C23.3598 20.0787 23.5163 19.8788 23.6535 19.7198C23.8066 19.5422 24.0028 19.3417 24.2192 19.1311C24.5168 18.8415 24.8724 18.514 25.234 18.1811C25.3957 18.0321 25.5587 17.882 25.7182 17.7337C26.2436 17.2454 26.7348 16.7734 27.078 16.3807C27.2378 16.1978 27.3514 16.0479 27.4204 15.933C27.2975 15.8784 27.1177 15.8207 26.8809 15.7624C26.3736 15.6376 25.6995 15.5328 24.9881 15.4342C24.7721 15.4042 24.5523 15.3748 24.334 15.3456C23.8462 15.2803 23.3666 15.2161 22.9561 15.1496C22.6576 15.1012 22.3816 15.0496 22.154 14.992C21.9501 14.9404 21.7073 14.8666 21.5374 14.7414L21.5373 14.7414C21.3673 14.6161 21.225 14.4061 21.1156 14.2267C20.9936 14.0266 20.8629 13.7785 20.729 13.5082C20.5447 13.1364 20.3422 12.6979 20.1364 12.2521C20.0443 12.0527 19.9515 11.8518 19.8594 11.6548C19.556 11.0056 19.2577 10.394 18.9892 9.9472C18.8632 9.73752 18.7546 9.58267 18.666 9.48168C18.5757 9.58124 18.4646 9.73433 18.3352 9.94199C18.0595 10.3844 17.7513 10.9912 17.4374 11.6353C17.3421 11.8309 17.2461 12.0303 17.1508 12.2282C16.9378 12.6706 16.7282 13.1057 16.5379 13.4745C16.3996 13.7426 16.265 13.9886 16.1397 14.1867C16.0274 14.3642 15.8818 14.5719 15.7097 14.6945L18.5512 23.6556ZM18.5512 23.6556C18.3401 23.6539 18.1003 23.7364 17.9048 23.8142M18.5512 23.6556L17.9048 23.8142M17.9048 23.8142C17.6868 23.9011 17.4329 24.0211 17.163 24.1569M17.9048 23.8142L17.163 24.1569M17.163 24.1569C16.7917 24.3437 16.3658 24.5729 15.9327 24.8059M17.163 24.1569L15.9327 24.8059M15.9327 24.8059C15.7389 24.9102 15.5437 25.0153 15.3513 25.1176M15.9327 24.8059L15.3513 25.1176M15.3513 25.1176C14.7176 25.4548 14.1105 25.7651 13.6266 25.9615M15.3513 25.1176L13.6266 25.9615M13.6266 25.9615C13.3996 26.0536 13.2194 26.1123 13.0876 26.14M13.6266 25.9615L13.0876 26.14M13.0876 26.14C13.0757 26.0067 13.0791 25.8184 13.1006 25.576C13.1468 25.0572 13.266 24.3876 13.4031 23.6846C13.4447 23.4712 13.4881 23.2543 13.5312 23.039C13.6274 22.5577 13.7221 22.0843 13.7922 21.6755C13.8431 21.3783 13.8836 21.101 13.9029 20.8675C13.9201 20.6584 13.9288 20.4048 13.865 20.2033C13.8011 20.0018 13.6479 19.7994 13.5134 19.6382C13.3631 19.4582 13.1702 19.2546 12.9573 19.0405C12.6643 18.7461 12.3141 18.413 11.9579 18.0742C11.7986 17.9227 11.6381 17.77 11.481 17.6192C10.9636 17.1224 10.4801 16.6427 10.1433 16.2444C9.98649 16.059 9.87534 15.9072 9.80813 15.7913C9.93193 15.7387 10.1127 15.6838 10.3504 15.6294C10.8597 15.5127 11.5353 15.4189 12.2482 15.3317C12.4647 15.3052 12.6849 15.2793 12.9036 15.2536C13.3924 15.1962 13.8731 15.1397 14.2846 15.0798C14.5838 15.0363 14.8606 14.989 15.0891 14.9351C15.2938 14.8869 15.5378 14.8169 15.7097 14.6945L13.0876 26.14Z" stroke="#2D327E"/>
</svg>
